<?xml version="1.0" encoding="UTF-8"?>
<svg width="256px" height="70px" viewBox="0 0 256 70" version="1.1" xmlns="http://www.w3.org/2000/svg" xmlns:xlink="http://www.w3.org/1999/xlink">
    <!-- Generator: Sketch 40.3 (33839) - http://www.bohemiancoding.com/sketch -->
    <title>pdfjs</title>
    <desc>Created with Sketch.</desc>
    <defs></defs>
    <g id="Page-1" stroke="none" stroke-width="1" fill="none" fill-rule="evenodd">
        <g id="Group">
            <g id="js" transform="translate(185.967497, 0.000000)">
                <polygon id="Fill-1" fill="#F8DC3F" points="0 0.069029703 69.9867389 0.069029703 69.9867389 69.9916832 0 69.9916832"></polygon>
                <path d="M18.3783315,58.4502772 L23.7271506,55.2147525 C24.7590553,57.0434851 25.6977681,58.5906931 27.9493478,58.5906931 C30.107597,58.5906931 31.4683077,57.7468119 31.4683077,54.4644356 L31.4683077,32.1420594 L38.0365244,32.1420594 L38.0365244,54.5578614 C38.0365244,61.357703 34.0488321,64.4528119 28.2308646,64.4528119 C22.9764854,64.4528119 19.9265352,61.7327921 18.3783315,58.4502772" id="Fill-3" fill="#2E2F2C"></path>
                <path d="M41.6027736,57.7468119 L46.9508992,54.651703 C48.3587606,56.9497822 50.188481,58.6379604 53.4256468,58.6379604 C56.1472069,58.6379604 57.8826262,57.2778812 57.8826262,55.4020198 C57.8826262,53.1510693 56.0999177,52.3537624 53.0971181,51.0410891 L51.4554453,50.3372079 C46.716533,48.3210693 43.5729751,45.7887327 43.5729751,40.4426733 C43.5729751,35.5186931 47.3263012,31.7668317 53.1911419,31.7668317 C57.3667432,31.7668317 60.3694041,33.2207525 62.5273759,37.0193267 L57.4133391,40.3018416 C56.2872719,38.2855644 55.0677356,37.488396 53.1911419,37.488396 C51.2675363,37.488396 50.047584,38.7076436 50.047584,40.3018416 C50.047584,42.2715446 51.2675363,43.0688515 54.0822882,44.2882376 L55.7242384,44.9915644 C61.3074236,47.3833465 64.4509816,49.821703 64.4509816,55.3081782 C64.4509816,61.2172871 59.8062319,64.4528119 53.5664052,64.4528119 C47.4671983,64.4528119 43.5261018,61.5455248 41.6027736,57.7468119" id="Fill-4" fill="#2E2F2C"></path>
            </g>
            <path d="M0,69.8814229 L14.3940322,69.8814229 L14.3940322,53.9525692 L19.3291289,53.9525692 C38.7610724,53.9525692 50.5847417,43.8814229 50.5847417,27.027668 C50.5847417,10.173913 38.8638869,0 19.3291289,0 L0,0 L0,69.8814229 Z M14.3940322,41.312253 L14.3940322,12.6403162 L18.9178709,12.6403162 C30.4330966,12.6403162 35.7794514,17.3675889 35.7794514,27.027668 C35.7794514,36.5849802 30.6387256,41.312253 18.9178709,41.312253 L14.3940322,41.312253 Z M61.7915238,69.8814229 L83.2797576,69.8814229 C104.870806,69.8814229 120.087354,55.5968379 120.087354,34.9407115 C120.087354,14.284585 104.767991,0 83.2797576,0 L61.7915238,0 L61.7915238,69.8814229 Z M76.185556,57.2411067 L76.185556,12.6403162 L82.560056,12.6403162 C98.0850478,12.6403162 105.179249,21.8893281 105.179249,34.9407115 C105.179249,47.9920949 98.0850478,57.2411067 82.560056,57.2411067 L76.185556,57.2411067 Z M132.219467,69.8814229 L146.613499,69.8814229 L146.613499,48.6086957 L174.476233,48.6086957 L174.476233,35.7628458 L146.613499,35.7628458 L146.613499,12.6403162 L177.252225,12.6403162 L177.252225,0 L132.219467,0 L132.219467,69.8814229 Z" id="PDF" fill="#2F2F2C"></path>
        </g>
    </g>
</svg>